grf
version=1
nRows=17
nColumns=37
inDegrees=no
endheader
time	ground_force_1_vx	ground_force_1_vy	ground_force_1_vz	ground_force_1_px	ground_force_1_py	ground_force_1_pz	ground_moment_1_mx	ground_moment_1_my	ground_moment_1_mz	ground_force_2_vx	ground_force_2_vy	ground_force_2_vz	ground_force_2_px	ground_force_2_py	ground_force_2_pz	ground_moment_2_mx	ground_moment_2_my	ground_moment_2_mz	ground_force_3_vx	ground_force_3_vy	ground_force_3_vz	ground_force_3_px	ground_force_3_py	ground_force_3_pz	ground_moment_3_mx	ground_moment_3_my	ground_moment_3_mz	ground_force_4_vx	ground_force_4_vy	ground_force_4_vz	ground_force_4_px	ground_force_4_py	ground_force_4_pz	ground_moment_4_mx	ground_moment_4_my	ground_moment_4_mz
      1.61000000	      0.00000000	     -0.00000000	      0.00000000	      0.00000000	      0.00000000	      0.00000000	      0.00000000	      0.00000000	      0.00000000	    -10.43762970	     28.28877258	   -345.21411133	   -311.57700830	  -1086.25130817	      0.00000000	      0.00000000	      0.00000000	   4177.25406172	      8.56577252	    -27.41470603	   -306.90429688	   -316.55781579	   -750.99203725	      0.00000000	      0.00000000	     -0.00000000	  -2726.75633930	      0.00000000	     -0.00000000	      0.00000000	      0.00000000	      0.00000000	      0.00000000	      0.00000000	      0.00000000	      0.00000000
      1.62000000	      0.00000000	     -0.00000000	      0.00000000	      0.00000000	      0.00000000	      0.00000000	      0.00000000	      0.00000000	      0.00000000	    -12.05270386	     28.14060593	   -340.72116089	   -310.58784383	  -1086.59271747	      0.00000000	      0.00000000	      0.00000000	   4028.01287385	      7.84593911	    -27.80156776	   -305.21652222	   -316.51558308	   -750.95627529	      0.00000000	      0.00000000	     -0.00000000	  -2719.76064658	      0.00000000	     -0.00000000	      0.00000000	      0.00000000	      0.00000000	      0.00000000	      0.00000000	      0.00000000	      0.00000000
      1.63000000	      0.00000000	     -0.00000000	      0.00000000	      0.00000000	      0.00000000	      0.00000000	      0.00000000	      0.00000000	      0.00000000	    -13.85901928	     28.12504196	   -339.95312500	   -310.15401365	  -1087.38736958	      0.00000000	      0.00000000	      0.00000000	   4027.42295070	      8.85598803	    -27.20308000	   -298.81442261	   -316.35298050	   -752.05024087	      0.00000000	      0.00000000	     -0.00000000	  -2721.53192764	      0.00000000	     -0.00000000	      0.00000000	      0.00000000	      0.00000000	      0.00000000	      0.00000000	      0.00000000	      0.00000000
      1.64000000	      0.00000000	     -0.00000000	      0.00000000	      0.00000000	      0.00000000	      0.00000000	      0.00000000	      0.00000000	      0.00000000	    -14.60612202	     27.79269409	   -341.55822754	   -310.02687233	  -1086.52910264	      0.00000000	      0.00000000	      0.00000000	   4026.39483311	      9.39429814	    -26.56950079	   -290.37295532	   -315.98732884	   -751.30654880	      0.00000000	      0.00000000	     -0.00000000	  -2726.60189700	      0.00000000	     -0.00000000	      0.00000000	      0.00000000	      0.00000000	      0.00000000	      0.00000000	      0.00000000	      0.00000000
      1.65000000	      0.00000000	     -0.00000000	      0.00000000	      0.00000000	      0.00000000	      0.00000000	      0.00000000	      0.00000000	      0.00000000	    -14.43576050	     27.68690109	   -350.45065308	   -310.24119143	  -1086.76154517	      0.00000000	      0.00000000	      0.00000000	   4153.77230214	      8.11273633	    -26.12755846	   -287.16604614	   -315.60518251	   -751.34247727	      0.00000000	      0.00000000	     -0.00000000	  -2688.71463230	      0.00000000	     -0.00000000	      0.00000000	      0.00000000	      0.00000000	      0.00000000	      0.00000000	      0.00000000	      0.00000000
      1.66000000	      0.00000000	     -0.00000000	      0.00000000	      0.00000000	      0.00000000	      0.00000000	      0.00000000	      0.00000000	      0.00000000	    -14.34616566	     27.16063309	   -357.22677612	   -312.36978074	  -1086.07221966	      0.00000000	      0.00000000	      0.00000000	   4259.44366230	      7.22594223	    -26.13516871	   -292.93823242	   -316.70574153	   -751.42195666	      0.00000000	      0.00000000	     -0.00000000	  -2804.92477058	      0.00000000	     -0.00000000	      0.00000000	      0.00000000	      0.00000000	      0.00000000	      0.00000000	      0.00000000	      0.00000000
      1.67000000	      0.00000000	     -0.00000000	      0.00000000	      0.00000000	      0.00000000	      0.00000000	      0.00000000	      0.00000000	      0.00000000	    -14.31477451	     25.88887215	   -361.81896973	   -313.39313723	  -1085.87468813	      0.00000000	     -0.00000000	      0.00000000	   4391.58568367	      8.19316644	    -25.16403651	   -298.49026489	   -318.00094393	   -752.34439618	      0.00000000	      0.00000000	     -0.00000000	  -2917.15094447	      0.00000000	     -0.00000000	      0.00000000	      0.00000000	      0.00000000	      0.00000000	      0.00000000	      0.00000000	      0.00000000
      1.68000000	      0.00000000	     -0.00000000	      0.00000000	      0.00000000	      0.00000000	      0.00000000	      0.00000000	      0.00000000	      0.00000000	    -14.05396271	     24.77164268	   -362.45745850	   -314.83801827	  -1086.96593215	      0.00000000	      0.00000000	      0.00000000	   4610.68870618	      9.07976412	    -24.58673175	   -304.64907837	   -319.46854859	   -750.41739428	      0.00000000	      0.00000000	     -0.00000000	  -2906.37296138	      0.00000000	     -0.00000000	      0.00000000	      0.00000000	      0.00000000	      0.00000000	      0.00000000	      0.00000000	      0.00000000
      1.69000000	      0.00000000	     -0.00000000	      0.00000000	      0.00000000	      0.00000000	      0.00000000	      0.00000000	      0.00000000	      0.00000000	    -13.16163635	     23.79781723	   -359.77151489	   -314.68121187	  -1084.98181439	      0.00000000	      0.00000000	      0.00000000	   4604.21355755	     10.29044896	    -23.95895857	   -307.22656250	   -320.76841940	   -749.74100263	      0.00000000	      0.00000000	     -0.00000000	  -2979.55833296	      0.00000000	     -0.00000000	      0.00000000	      0.00000000	      0.00000000	      0.00000000	      0.00000000	      0.00000000	      0.00000000
      1.70000000	      0.00000000	     -0.00000000	      0.00000000	      0.00000000	      0.00000000	      0.00000000	      0.00000000	      0.00000000	      0.00000000	    -11.52621365	     23.99411964	   -357.95910645	   -315.94994136	  -1085.55020374	      0.00000000	      0.00000000	      0.00000000	   4408.26856162	     11.91732204	    -23.22860440	   -306.20599365	   -322.81007067	   -752.17204082	      0.00000000	      0.00000000	      0.00000000	  -3027.06581223	      0.00000000	     -0.00000000	      0.00000000	      0.00000000	      0.00000000	      0.00000000	      0.00000000	      0.00000000	      0.00000000
      1.71000000	      0.00000000	     -0.00000000	      0.00000000	      0.00000000	      0.00000000	      0.00000000	      0.00000000	      0.00000000	      0.00000000	     -9.69507980	     24.41648483	   -352.89947510	   -315.68572019	  -1086.21244088	      0.00000000	      0.00000000	      0.00000000	   4555.98058564	     13.75016968	    -22.67512251	   -307.92846680	   -323.53600866	   -752.15793812	      0.00000000	      0.00000000	     -0.00000000	  -3037.04212780	      0.00000000	     -0.00000000	      0.00000000	      0.00000000	      0.00000000	      0.00000000	      0.00000000	      0.00000000	      0.00000000
      1.72000000	      0.00000000	     -0.00000000	      0.00000000	      0.00000000	      0.00000000	      0.00000000	      0.00000000	      0.00000000	      0.00000000	     -9.18868256	     24.88120461	   -350.16833496	   -315.89764688	  -1087.05045285	      0.00000000	      0.00000000	      0.00000000	   4555.11318498	     16.16341020	    -21.63333462	   -304.90206909	   -324.54172275	   -753.15701939	      0.00000000	      0.00000000	     -0.00000000	  -2889.61484773	      0.00000000	     -0.00000000	      0.00000000	      0.00000000	      0.00000000	      0.00000000	      0.00000000	      0.00000000	      0.00000000
      1.73000000	      0.00000000	     -0.00000000	      0.00000000	      0.00000000	      0.00000000	      0.00000000	      0.00000000	      0.00000000	      0.00000000	    -10.33380413	     25.32763672	   -349.57290649	   -316.41030677	  -1086.99431575	      0.00000000	     -0.00000000	     -0.00000000	   4617.90145312	     16.98558247	    -20.51397281	   -301.57473755	   -325.12907144	   -752.25793929	      0.00000000	      0.00000000	     -0.00000000	  -2941.53449596	      0.00000000	     -0.00000000	      0.00000000	      0.00000000	      0.00000000	      0.00000000	      0.00000000	      0.00000000	      0.00000000
      1.74000000	      0.00000000	     -0.00000000	      0.00000000	      0.00000000	      0.00000000	      0.00000000	      0.00000000	      0.00000000	      0.00000000	    -11.08537579	     25.00689316	   -350.73843384	   -317.94526806	  -1085.96967727	      0.00000000	      0.00000000	      0.00000000	   4764.23022593	     15.96793953	    -20.09998270	   -299.13119507	   -325.52481739	   -752.07677019	      0.00000000	      0.00000000	     -0.00000000	  -2851.11078584	      0.00000000	     -0.00000000	      0.00000000	      0.00000000	      0.00000000	      0.00000000	      0.00000000	      0.00000000	      0.00000000
      1.75000000	      0.00000000	     -0.00000000	      0.00000000	      0.00000000	      0.00000000	      0.00000000	      0.00000000	      0.00000000	      0.00000000	    -10.05417061	     24.42517853	   -356.20248413	   -318.97558054	  -1086.66237479	      0.00000000	     -0.00000000	      0.00000000	   4721.60862582	     15.50117700	    -19.91448729	   -297.46096802	   -326.14769120	   -752.57835144	      0.00000000	      0.00000000	     -0.00000000	  -2730.19420790	      0.00000000	     -0.00000000	      0.00000000	      0.00000000	      0.00000000	      0.00000000	      0.00000000	      0.00000000	      0.00000000
      1.76000000	      0.00000000	     -0.00000000	      0.00000000	      0.00000000	      0.00000000	      0.00000000	      0.00000000	      0.00000000	      0.00000000	     -7.35833502	     24.01911163	   -363.33084106	   -322.28737962	  -1086.05378038	      0.00000000	      0.00000000	      0.00000000	   5063.98413444	     15.61309647	    -19.19254249	   -298.79754639	   -327.17721595	   -752.54502194	      0.00000000	     -0.00000000	     -0.00000000	  -2702.13484613	      0.00000000	     -0.00000000	      0.00000000	      0.00000000	      0.00000000	      0.00000000	      0.00000000	      0.00000000	      0.00000000
      1.77000000	      0.00000000	     -0.00000000	      0.00000000	      0.00000000	      0.00000000	      0.00000000	      0.00000000	      0.00000000	      0.00000000	     -5.50809479	     22.95238495	   -367.04486084	   -323.32083058	  -1086.34310519	      0.00000000	      0.00000000	      0.00000000	   5034.46312508	     16.76633670	    -18.90084223	   -302.45584106	   -329.22775322	   -752.70397438	      0.00000000	      0.00000000	     -0.00000000	  -2690.39222431	      0.00000000	     -0.00000000	      0.00000000	      0.00000000	      0.00000000	      0.00000000	      0.00000000	      0.00000000	      0.00000000
